<?xml version="1.0" standalone="no"?>
<!DOCTYPE svg PUBLIC "-//W3C//DTD SVG 20010904//EN"
 "http://www.w3.org/TR/2001/REC-SVG-20010904/DTD/svg10.dtd">
<svg version="1.0" xmlns="http://www.w3.org/2000/svg"
 width="350.000000pt" height="457.000000pt" viewBox="0 0 350.000000 457.000000"
 preserveAspectRatio="xMidYMid meet">
<metadata>
Created by potrace 1.13, written by Peter Selinger 2001-2015
</metadata>
<g transform="translate(0.000000,457.000000) scale(0.100000,-0.100000)"
fill="#000000" stroke="none">
<path d="M1505 4546 c-202 -53 -317 -118 -440 -248 -67 -72 -96 -112 -128
-179 -29 -59 -50 -90 -67 -97 -50 -23 -100 -72 -100 -100 0 -16 -13 -39 -32
-60 -25 -25 -33 -42 -33 -70 0 -32 -5 -40 -55 -74 -69 -48 -111 -88 -104 -100
3 -5 17 -13 31 -19 l25 -9 -41 -46 c-32 -36 -38 -50 -31 -64 8 -15 -5 -32 -75
-97 -96 -90 -106 -113 -46 -113 22 0 42 -4 46 -10 3 -5 -10 -27 -30 -48 -40
-45 -44 -68 -14 -77 14 -5 19 -13 16 -25 -3 -11 1 -27 9 -37 26 -34 15 -57
-57 -128 -100 -99 -221 -261 -214 -286 4 -13 -9 -46 -38 -97 -146 -253 -164
-440 -59 -621 44 -75 87 -113 168 -146 56 -23 59 -26 57 -57 -6 -98 -5 -336 1
-356 7 -22 12 -23 51 -18 l43 7 66 -79 c113 -137 205 -371 191 -487 -12 -94
35 -165 130 -195 22 -7 45 -17 51 -22 6 -4 17 -67 24 -138 12 -129 12 -129 41
-139 44 -15 39 -30 -32 -84 -65 -49 -82 -57 -125 -57 -40 0 -104 -34 -104 -55
0 -36 35 -53 165 -79 197 -38 245 -41 286 -21 19 10 48 28 66 41 40 30 43 30
43 -2 0 -26 1 -26 68 -23 37 2 73 0 80 -5 7 -4 15 -6 16 -5 2 2 24 67 49 145
39 119 47 157 52 250 9 157 6 150 66 158 97 13 120 37 134 141 8 61 30 105 52
105 15 0 51 -34 170 -162 32 -35 68 -62 96 -73 50 -19 52 -24 82 -175 11 -52
25 -95 39 -110 30 -36 28 -123 -4 -174 -24 -39 -29 -81 -13 -97 6 -6 106 -13
224 -16 l214 -5 47 143 c38 115 49 163 53 239 11 163 21 197 76 255 59 63 72
95 64 160 -5 46 -2 55 30 105 20 30 55 90 77 134 33 62 65 102 153 190 82 82
120 128 145 178 l35 68 57 0 c45 0 58 3 62 18 9 33 17 218 18 422 l1 205 47
70 c104 153 126 223 116 369 -8 125 -30 267 -51 325 -14 40 -14 46 1 62 15 17
10 24 -82 120 -111 115 -235 214 -360 289 -46 28 -84 55 -84 59 0 3 14 15 30
24 20 12 30 26 30 42 0 24 -23 55 -42 55 -25 0 2 24 47 41 26 10 52 22 57 27
17 17 -4 40 -63 72 -33 17 -57 35 -54 39 2 5 18 14 35 21 49 20 41 54 -20 85
-27 14 -50 29 -50 33 0 5 23 19 50 32 55 26 59 36 31 71 -15 19 -30 23 -87 26
-91 5 -114 11 -114 28 0 8 9 19 21 25 13 7 19 19 17 33 -2 18 -10 22 -43 24
-22 0 -29 -1 -15 -4 42 -8 46 -21 15 -53 -21 -21 -26 -33 -18 -41 15 -15 79
-28 136 -29 94 0 116 -37 40 -65 -51 -19 -85 -43 -78 -55 2 -4 25 -13 49 -20
85 -24 96 -72 20 -86 -53 -10 -41 -31 41 -71 79 -40 93 -59 48 -69 -83 -19
-88 -21 -91 -41 -2 -14 7 -28 27 -42 29 -21 33 -51 8 -51 -6 0 -20 -9 -32 -20
l-21 -20 -78 26 c-42 15 -86 36 -97 47 -14 15 -35 22 -79 25 -39 3 -60 1 -60
-6 0 -6 27 -13 63 -15 46 -2 56 -5 40 -11 -13 -5 -23 -12 -23 -17 0 -5 -16
-17 -35 -26 -44 -21 -44 -38 -1 -53 28 -9 46 -26 46 -45 0 -2 -20 -16 -45 -32
-56 -35 -62 -50 -33 -80 l22 -24 -29 -24 c-28 -22 -29 -24 -10 -30 46 -14 70
-32 73 -54 6 -38 -28 -64 -132 -101 l-30 -11 30 -19 c16 -11 29 -25 29 -32 0
-7 -31 -29 -70 -48 -38 -19 -72 -36 -75 -38 -2 -2 9 -13 25 -26 l29 -23 -97
-48 c-74 -36 -95 -50 -87 -60 7 -8 5 -16 -8 -27 -26 -23 -151 -88 -167 -88 -8
0 -15 -7 -15 -15 0 -8 6 -15 13 -15 6 0 19 -5 27 -10 12 -7 11 -13 -9 -34 -13
-14 -40 -31 -60 -37 -56 -18 -112 -49 -106 -58 9 -16 -22 -31 -109 -52 -86
-21 -136 -48 -136 -73 0 -7 -19 -21 -43 -30 -53 -20 -58 -20 -50 0 5 15 -1 16
-61 9 -67 -7 -68 -7 -56 15 l12 22 -127 -7 c-126 -7 -127 -7 -116 13 6 11 11
23 11 25 0 3 -35 3 -77 0 -47 -3 -90 0 -107 6 l-29 12 23 24 c13 14 31 27 42
31 48 15 7 24 -112 24 -139 0 -146 3 -114 48 9 13 13 26 10 29 -3 3 -42 5 -86
4 -91 -3 -104 11 -50 51 17 12 30 26 30 31 0 5 -35 8 -80 5 -91 -4 -100 5 -54
53 14 15 23 32 20 38 -4 6 -33 11 -64 11 l-57 1 33 27 c40 34 41 50 2 63 -17
6 -30 14 -30 18 0 10 37 42 73 64 35 23 34 30 -8 50 -19 9 -35 21 -35 27 0 5
22 26 50 46 52 38 60 53 35 74 -17 14 -20 46 -5 55 15 9 2 25 -21 25 -11 0
-19 7 -19 17 0 14 -2 15 -12 5 -7 -7 -13 -17 -13 -23 0 -5 -29 -32 -64 -59
-61 -47 -64 -48 -87 -33 -28 18 -30 26 -9 43 22 18 18 27 -15 34 -16 3 -30 10
-30 16 0 6 16 32 35 57 20 26 34 51 32 57 -2 6 -22 12 -45 14 -23 2 -42 7 -42
11 0 10 91 96 143 135 35 27 37 30 21 47 -15 17 -14 21 25 65 46 52 50 64 22
64 -11 0 -23 5 -27 12 -7 12 25 43 106 102 40 29 45 37 43 69 -2 31 3 40 38
68 31 25 39 37 35 54 -6 23 27 61 70 84 19 9 23 7 27 -11 17 -62 -28 -312 -79
-442 -27 -70 -1 -182 58 -243 39 -41 30 -57 -30 -50 -29 3 -40 2 -30 -4 21
-12 68 -14 96 -5 12 4 31 24 41 45 30 57 95 136 134 160 36 22 94 34 102 21 3
-4 46 -8 97 -8 100 0 128 9 186 59 18 16 39 29 47 29 8 0 33 20 57 43 107 109
299 116 427 16 31 -24 52 -24 103 2 45 23 148 120 148 140 0 8 -7 5 -20 -6
-20 -18 -20 -17 -20 16 0 84 -50 203 -130 314 -60 83 -64 96 -51 155 13 58 14
117 1 125 -22 13 -8 33 27 40 32 6 40 3 52 -14 12 -19 23 -21 102 -21 l89 0 0
-30 c0 -36 15 -44 109 -59 35 -6 67 -13 70 -17 3 -3 -7 -17 -24 -30 -25 -20
-28 -27 -19 -41 9 -14 25 -18 77 -18 69 0 88 -8 69 -27 -29 -29 -13 -38 61
-36 68 1 69 1 22 7 -44 5 -50 9 -50 29 0 32 -21 42 -91 42 -33 0 -64 3 -67 7
-4 3 5 17 19 30 42 39 29 50 -88 73 -54 11 -57 13 -60 43 l-3 32 -97 9 c-80 7
-97 11 -101 26 -4 16 -13 18 -65 13 -60 -6 -60 -5 -118 41 -139 114 -259 138
-439 92z m241 -10 c79 -21 152 -65 217 -130 l59 -58 -8 -57 c-17 -118 -2 -171
86 -301 72 -106 95 -177 84 -253 -8 -50 -52 -97 -108 -114 -34 -10 -41 -9 -93
23 -81 48 -115 57 -207 52 -61 -3 -96 -11 -141 -32 -33 -15 -61 -23 -63 -17
-2 5 -12 21 -23 35 -22 28 -66 35 -87 14 -8 -8 -15 -8 -27 2 -11 9 -32 11 -70
6 -44 -5 -55 -3 -55 8 0 19 -46 73 -55 64 -4 -4 0 -17 9 -30 34 -48 13 -92
-66 -141 -19 -12 -31 -31 -39 -61 -9 -37 -17 -47 -50 -61 -48 -22 -121 -93
-156 -153 l-26 -45 -43 45 c-74 79 -76 159 -10 342 33 90 36 108 36 206 0 178
39 272 170 407 123 127 235 190 424 238 105 28 170 30 242 11z m-318 -868 c9
-9 20 -9 48 1 30 11 38 11 49 0 24 -26 26 -55 6 -80 -17 -21 -21 -22 -36 -9
-11 9 -20 11 -22 5 -22 -64 -92 -110 -153 -101 -59 9 -89 72 -60 126 28 53
136 90 168 58z m2011 -843 c31 -118 42 -379 18 -449 -32 -93 -187 -307 -274
-379 -59 -48 -165 -99 -268 -129 -44 -13 -94 -33 -112 -46 -76 -54 -210 -95
-220 -66 -2 5 20 18 49 27 56 18 107 51 96 62 -3 3 -29 -5 -58 -20 -52 -26
-136 -43 -164 -32 -24 9 -9 32 32 51 64 31 132 78 132 92 0 19 -10 18 -34 -5
-34 -30 -119 -71 -148 -71 -44 0 -34 24 37 94 47 46 65 71 65 90 0 25 -3 26
-50 26 -28 0 -50 5 -50 10 0 21 33 61 62 76 27 14 33 14 70 -6 23 -12 44 -18
48 -13 117 131 106 112 114 209 9 110 18 126 138 235 186 169 291 251 390 305
92 50 98 46 127 -61z m-3088 -458 c-2 -110 11 -167 50 -208 l28 -30 44 31 c55
39 110 47 157 23 47 -24 52 -51 9 -55 -18 -2 -37 -11 -43 -20 -16 -26 17 -55
116 -103 45 -22 84 -46 86 -52 8 -27 -50 -35 -116 -18 -35 10 -65 15 -68 12
-14 -14 11 -25 78 -36 78 -13 125 -39 115 -64 -11 -30 -110 -31 -179 -2 -13 5
-18 2 -18 -9 0 -15 10 -19 83 -31 43 -7 48 -21 11 -35 -37 -14 -111 -12 -174
6 -30 8 -104 18 -165 23 -168 11 -228 49 -294 183 -85 173 -56 371 87 586 l35
54 80 -80 80 -80 -2 -95z m2145 -1904 c-5 -79 -12 -130 -19 -135 -19 -12 -127
-19 -227 -16 l-95 3 -11 125 c-7 69 -9 128 -5 132 3 4 67 9 141 11 74 1 155 4
179 5 l44 2 -7 -127z m-1334 91 c5 -3 8 -61 8 -130 l0 -124 -72 0 c-63 1 -192
20 -203 31 -4 5 -25 177 -25 213 l0 29 142 -7 c79 -4 146 -10 150 -12z"/>
<path d="M1554 4180 c-53 -21 -99 -136 -92 -230 2 -33 7 -63 11 -67 4 -3 21 3
37 16 97 71 102 73 165 68 33 -2 93 -15 132 -28 40 -12 75 -20 78 -17 11 10
-51 121 -95 171 -70 79 -167 115 -236 87z m113 -21 c48 -18 109 -76 146 -139
21 -34 37 -63 37 -65 0 -3 -11 0 -25 5 -102 39 -225 32 -298 -16 -48 -31 -54
-20 -37 73 12 73 22 96 53 131 23 25 76 30 124 11z"/>
<path d="M1057 4019 c-44 -25 -100 -193 -90 -268 l6 -40 21 32 c37 55 89 77
184 77 l82 0 -6 28 c-10 44 -41 104 -74 145 -26 31 -38 37 -68 37 -20 0 -45
-5 -55 -11z m101 -40 c34 -35 62 -87 62 -116 0 -16 -6 -18 -39 -15 -46 5 -128
-20 -166 -50 -14 -11 -28 -18 -30 -16 -8 7 25 128 45 168 35 68 80 78 128 29z"/>
<path d="M2377 534 c-3 -3 -50 -7 -104 -9 l-98 -2 -3 -54 c-6 -101 -8 -99 121
-99 61 0 118 4 124 8 7 5 15 30 18 58 3 27 8 61 10 77 4 25 2 27 -29 27 -18 0
-35 -3 -39 -6z"/>
<path d="M916 492 c-3 -5 -1 -36 5 -68 l10 -59 89 0 89 0 5 29 c10 47 7 86 -6
91 -31 9 -187 15 -192 7z"/>
<path d="M1413 3288 c-16 -24 -46 -71 -66 -105 -69 -114 -139 -156 -250 -151
-72 3 -90 -6 -31 -15 56 -9 143 11 192 45 l44 30 42 -46 c50 -54 76 -58 180
-26 77 24 88 37 112 133 l17 68 51 -5 51 -6 -44 13 c-25 6 -47 18 -49 26 -3 9
2 11 14 8 92 -26 187 -39 217 -29 30 9 29 10 -25 11 -50 1 -169 21 -222 37
-15 5 -18 3 -13 -10 10 -24 -7 -20 -87 24 -40 22 -79 40 -88 40 -8 0 -28 -19
-45 -42z m196 -48 c16 -8 17 -16 9 -67 -13 -83 -26 -97 -114 -127 -69 -23 -79
-24 -109 -12 -41 17 -69 57 -60 86 8 25 27 25 98 1 l56 -20 28 32 c15 18 37
51 47 75 21 47 20 46 45 32z"/>
</g>
</svg>
